<svg version="1.0" xmlns="http://www.w3.org/2000/svg" height="512" width="512"><style>.st1{fill:#fff}</style><path fill="#73C8FF" d="M354.8 85.9C301.6 55.1 257.2 30 256 30s-45.6 25.1-98.8 55.9l-96.6 55.9v228.4l96.7 56.1c55.2 31.9 97.6 56 98.8 55.9 1.1-.1 45.6-25.3 98.7-56.1l96.6-55.9V141.7l-96.6-55.8z"/><path class="st1" d="M256 145.1l-68 35 40.6 20.9 27.4-14.1 73.8 38 20.2-9.4v-22zM343.5 322l6.5-3.4v-35.1L168.5 190l-6.5 3.4v35.1zM283.4 311.1L256 325.2l-73.8-38-20.2 9.4v22l94 48.4 68-35z"/></svg>